<svg width="71" height="37" viewBox="0 0 71 37" fill="none" xmlns="http://www.w3.org/2000/svg">
<mask id="path-1-outside-1_149_1256" maskUnits="userSpaceOnUse" x="0" y="-0.483398" width="71" height="37" fill="black">
<rect fill="white" y="-0.483398" width="71" height="37"/>
<path d="M38.2409 35.5955C40.1789 35.5955 43.4726 34.1241 46.2324 32.6822C48.697 31.3968 51.461 29.7636 54.4489 27.8267L58.5687 25.0417L60.02 23.9991C63.4283 21.5241 66.6811 19.1205 69.6868 16.8526L70 16.6171L69.6668 16.4101C66.2102 14.263 62.7557 12.1568 59.3989 10.1506L55.9297 8.13901L53.5167 6.83477C50.3575 5.16689 47.46 3.78487 44.8998 2.7255C41.0806 1.1438 36.3187 -0.405326 35.3318 1.18268C34.346 2.76964 37.8468 6.35027 40.9566 9.07437C42.5709 10.4869 44.4952 12.0286 46.6875 13.665C41.9929 13.1889 36.614 12.9377 31.0565 12.9377C16.486 12.9377 1 14.7527 1 18.1158C1 21.4789 16.486 23.2929 31.0565 23.2929C36.2903 23.2929 41.4096 23.0669 45.9214 22.6392C44.3502 24.0821 42.9471 25.4484 41.7438 26.7085C38.8873 29.6974 35.7176 33.5744 36.84 35.0689C37.1174 35.4378 37.6072 35.5955 38.2409 35.5955ZM69.0489 16.6592C66.1335 18.8557 62.9911 21.1762 59.7048 23.563L56.4363 25.8677L54.1546 27.3759C51.1825 29.3023 48.4332 30.9271 45.9844 32.205C38.903 35.9034 37.5242 35.0826 37.2709 34.7452C37.0165 34.4068 36.6151 32.8535 42.1326 27.0805C43.4789 25.6722 45.0764 24.1284 46.8819 22.492L47.4883 21.9413L46.6739 22.0244C41.9876 22.5025 36.5867 22.7548 31.0565 22.7548C13.3993 22.7548 1.53809 20.3565 1.53809 18.1158C1.53809 15.8752 13.3993 13.4758 31.0565 13.4758C36.9861 13.4758 42.7107 13.7627 47.6113 14.304L48.6087 14.4143L47.8005 13.8205C45.2897 11.974 43.1058 10.2409 41.3118 8.6687C35.3035 3.40757 35.5652 1.82587 35.788 1.46644C36.0139 1.10596 37.3129 0.166399 44.6938 3.22365C47.2382 4.27567 50.121 5.65033 53.2623 7.30875L56.9008 9.29717L59.1246 10.613C62.3689 12.5531 65.7068 14.5867 69.0489 16.6592Z"/>
</mask>
<path d="M38.2409 35.5955C40.1789 35.5955 43.4726 34.1241 46.2324 32.6822C48.697 31.3968 51.461 29.7636 54.4489 27.8267L58.5687 25.0417L60.02 23.9991C63.4283 21.5241 66.6811 19.1205 69.6868 16.8526L70 16.6171L69.6668 16.4101C66.2102 14.263 62.7557 12.1568 59.3989 10.1506L55.9297 8.13901L53.5167 6.83477C50.3575 5.16689 47.46 3.78487 44.8998 2.7255C41.0806 1.1438 36.3187 -0.405326 35.3318 1.18268C34.346 2.76964 37.8468 6.35027 40.9566 9.07437C42.5709 10.4869 44.4952 12.0286 46.6875 13.665C41.9929 13.1889 36.614 12.9377 31.0565 12.9377C16.486 12.9377 1 14.7527 1 18.1158C1 21.4789 16.486 23.2929 31.0565 23.2929C36.2903 23.2929 41.4096 23.0669 45.9214 22.6392C44.3502 24.0821 42.9471 25.4484 41.7438 26.7085C38.8873 29.6974 35.7176 33.5744 36.84 35.0689C37.1174 35.4378 37.6072 35.5955 38.2409 35.5955ZM69.0489 16.6592C66.1335 18.8557 62.9911 21.1762 59.7048 23.563L56.4363 25.8677L54.1546 27.3759C51.1825 29.3023 48.4332 30.9271 45.9844 32.205C38.903 35.9034 37.5242 35.0826 37.2709 34.7452C37.0165 34.4068 36.6151 32.8535 42.1326 27.0805C43.4789 25.6722 45.0764 24.1284 46.8819 22.492L47.4883 21.9413L46.6739 22.0244C41.9876 22.5025 36.5867 22.7548 31.0565 22.7548C13.3993 22.7548 1.53809 20.3565 1.53809 18.1158C1.53809 15.8752 13.3993 13.4758 31.0565 13.4758C36.9861 13.4758 42.7107 13.7627 47.6113 14.304L48.6087 14.4143L47.8005 13.8205C45.2897 11.974 43.1058 10.2409 41.3118 8.6687C35.3035 3.40757 35.5652 1.82587 35.788 1.46644C36.0139 1.10596 37.3129 0.166399 44.6938 3.22365C47.2382 4.27567 50.121 5.65033 53.2623 7.30875L56.9008 9.29717L59.1246 10.613C62.3689 12.5531 65.7068 14.5867 69.0489 16.6592Z" fill="#333B41"/>
<path d="M38.2409 35.5955C40.1789 35.5955 43.4726 34.1241 46.2324 32.6822C48.697 31.3968 51.461 29.7636 54.4489 27.8267L58.5687 25.0417L60.02 23.9991C63.4283 21.5241 66.6811 19.1205 69.6868 16.8526L70 16.6171L69.6668 16.4101C66.2102 14.263 62.7557 12.1568 59.3989 10.1506L55.9297 8.13901L53.5167 6.83477C50.3575 5.16689 47.46 3.78487 44.8998 2.7255C41.0806 1.1438 36.3187 -0.405326 35.3318 1.18268C34.346 2.76964 37.8468 6.35027 40.9566 9.07437C42.5709 10.4869 44.4952 12.0286 46.6875 13.665C41.9929 13.1889 36.614 12.9377 31.0565 12.9377C16.486 12.9377 1 14.7527 1 18.1158C1 21.4789 16.486 23.2929 31.0565 23.2929C36.2903 23.2929 41.4096 23.0669 45.9214 22.6392C44.3502 24.0821 42.9471 25.4484 41.7438 26.7085C38.8873 29.6974 35.7176 33.5744 36.84 35.0689C37.1174 35.4378 37.6072 35.5955 38.2409 35.5955ZM69.0489 16.6592C66.1335 18.8557 62.9911 21.1762 59.7048 23.563L56.4363 25.8677L54.1546 27.3759C51.1825 29.3023 48.4332 30.9271 45.9844 32.205C38.903 35.9034 37.5242 35.0826 37.2709 34.7452C37.0165 34.4068 36.6151 32.8535 42.1326 27.0805C43.4789 25.6722 45.0764 24.1284 46.8819 22.492L47.4883 21.9413L46.6739 22.0244C41.9876 22.5025 36.5867 22.7548 31.0565 22.7548C13.3993 22.7548 1.53809 20.3565 1.53809 18.1158C1.53809 15.8752 13.3993 13.4758 31.0565 13.4758C36.9861 13.4758 42.7107 13.7627 47.6113 14.304L48.6087 14.4143L47.8005 13.8205C45.2897 11.974 43.1058 10.2409 41.3118 8.6687C35.3035 3.40757 35.5652 1.82587 35.788 1.46644C36.0139 1.10596 37.3129 0.166399 44.6938 3.22365C47.2382 4.27567 50.121 5.65033 53.2623 7.30875L56.9008 9.29717L59.1246 10.613C62.3689 12.5531 65.7068 14.5867 69.0489 16.6592Z" stroke="#333B41" mask="url(#path-1-outside-1_149_1256)"/>
</svg>
